MetaMessage('track_name', name='Xylophone', time=0)
MetaMessage('time_signature', numerator=4, denominator=4, clocks_per_click=24, notated_32nd_notes_per_beat=8, time=0)
MetaMessage('key_signature', key='C', time=0)
MetaMessage('set_tempo', tempo=500000, time=0)
control_change channel=0 control=121 value=0 time=0
control_change channel=0 control=100 value=0 time=0
control_change channel=0 control=101 value=0 time=0
control_change channel=0 control=6 value=12 time=0
control_change channel=0 control=100 value=127 time=0
control_change channel=0 control=101 value=127 time=0
program_change channel=0 program=13 time=0
control_change channel=0 control=7 value=100 time=0
control_change channel=0 control=10 value=64 time=0
control_change channel=0 control=91 value=0 time=0
control_change channel=0 control=93 value=0 time=0
MetaMessage('midi_port', port=0, time=0)
note_on channel=0 note=81 velocity=80 time=0
note_on channel=0 note=81 velocity=0 time=479
note_on channel=0 note=81 velocity=80 time=1
note_on channel=0 note=81 velocity=0 time=479
note_on channel=0 note=81 velocity=80 time=1
note_on channel=0 note=81 velocity=0 time=479
note_on channel=0 note=77 velocity=80 time=1
note_on channel=0 note=77 velocity=0 time=359
note_on channel=0 note=84 velocity=80 time=1
note_on channel=0 note=84 velocity=0 time=119
note_on channel=0 note=81 velocity=80 time=1
note_on channel=0 note=81 velocity=0 time=479
note_on channel=0 note=77 velocity=80 time=1
note_on channel=0 note=77 velocity=0 time=359
note_on channel=0 note=84 velocity=80 time=1
note_on channel=0 note=84 velocity=0 time=119
note_on channel=0 note=81 velocity=80 time=1
note_on channel=0 note=81 velocity=0 time=959
note_on channel=0 note=88 velocity=80 time=1
note_on channel=0 note=88 velocity=0 time=479
note_on channel=0 note=88 velocity=80 time=1
note_on channel=0 note=88 velocity=0 time=479
note_on channel=0 note=88 velocity=80 time=1
note_on channel=0 note=88 velocity=0 time=479
note_on channel=0 note=89 velocity=80 time=1
note_on channel=0 note=89 velocity=0 time=239
note_on channel=0 note=84 velocity=80 time=1
note_on channel=0 note=84 velocity=0 time=239
note_on channel=0 note=80 velocity=80 time=1
note_on channel=0 note=80 velocity=0 time=479
note_on channel=0 note=77 velocity=80 time=1
note_on channel=0 note=77 velocity=0 time=359
note_on channel=0 note=84 velocity=80 time=1
note_on channel=0 note=84 velocity=0 time=119
note_on channel=0 note=81 velocity=80 time=1
note_on channel=0 note=81 velocity=0 time=959
note_on channel=0 note=93 velocity=80 time=1
note_on channel=0 note=93 velocity=0 time=479
note_on channel=0 note=81 velocity=80 time=1
note_on channel=0 note=81 velocity=0 time=239
note_on channel=0 note=81 velocity=80 time=1
note_on channel=0 note=81 velocity=0 time=239
note_on channel=0 note=93 velocity=80 time=1
note_on channel=0 note=93 velocity=0 time=479
note_on channel=0 note=92 velocity=80 time=1
note_on channel=0 note=92 velocity=0 time=239
note_on channel=0 note=91 velocity=80 time=1
note_on channel=0 note=91 velocity=0 time=239
note_on channel=0 note=90 velocity=80 time=1
note_on channel=0 note=90 velocity=0 time=239
note_on channel=0 note=89 velocity=80 time=1
note_on channel=0 note=89 velocity=0 time=239
note_on channel=0 note=90 velocity=80 time=1
note_on channel=0 note=90 velocity=0 time=239
note_on channel=0 note=82 velocity=80 time=1
note_on channel=0 note=82 velocity=0 time=239
note_on channel=0 note=87 velocity=80 time=1
note_on channel=0 note=87 velocity=0 time=479
note_on channel=0 note=86 velocity=80 time=1
note_on channel=0 note=86 velocity=0 time=239
note_on channel=0 note=85 velocity=80 time=1
note_on channel=0 note=85 velocity=0 time=239
note_on channel=0 note=84 velocity=80 time=1
note_on channel=0 note=84 velocity=0 time=239
note_on channel=0 note=83 velocity=80 time=1
note_on channel=0 note=83 velocity=0 time=239
note_on channel=0 note=84 velocity=80 time=1
note_on channel=0 note=84 velocity=0 time=239
note_on channel=0 note=77 velocity=80 time=1
note_on channel=0 note=77 velocity=0 time=239
note_on channel=0 note=80 velocity=80 time=1
note_on channel=0 note=80 velocity=0 time=479
note_on channel=0 note=77 velocity=80 time=1
note_on channel=0 note=77 velocity=0 time=359
note_on channel=0 note=80 velocity=80 time=1
note_on channel=0 note=80 velocity=0 time=119
note_on channel=0 note=84 velocity=80 time=1
note_on channel=0 note=84 velocity=0 time=479
note_on channel=0 note=81 velocity=80 time=1
note_on channel=0 note=81 velocity=0 time=239
note_on channel=0 note=84 velocity=80 time=1
note_on channel=0 note=84 velocity=0 time=239
note_on channel=0 note=88 velocity=80 time=1
note_on channel=0 note=88 velocity=0 time=959
note_on channel=0 note=93 velocity=80 time=1
note_on channel=0 note=93 velocity=0 time=479
note_on channel=0 note=81 velocity=80 time=1
note_on channel=0 note=81 velocity=0 time=239
note_on channel=0 note=81 velocity=80 time=1
note_on channel=0 note=81 velocity=0 time=239
note_on channel=0 note=93 velocity=80 time=1
note_on channel=0 note=93 velocity=0 time=479
note_on channel=0 note=92 velocity=80 time=1
note_on channel=0 note=92 velocity=0 time=239
note_on channel=0 note=91 velocity=80 time=1
note_on channel=0 note=91 velocity=0 time=239
note_on channel=0 note=90 velocity=80 time=1
note_on channel=0 note=90 velocity=0 time=239
note_on channel=0 note=89 velocity=80 time=1
note_on channel=0 note=89 velocity=0 time=239
note_on channel=0 note=90 velocity=80 time=1
note_on channel=0 note=90 velocity=0 time=239
note_on channel=0 note=82 velocity=80 time=1
note_on channel=0 note=82 velocity=0 time=239
note_on channel=0 note=87 velocity=80 time=1
note_on channel=0 note=87 velocity=0 time=479
note_on channel=0 note=86 velocity=80 time=1
note_on channel=0 note=86 velocity=0 time=239
note_on channel=0 note=85 velocity=80 time=1
note_on channel=0 note=85 velocity=0 time=239
note_on channel=0 note=84 velocity=80 time=1
note_on channel=0 note=84 velocity=0 time=239
note_on channel=0 note=83 velocity=80 time=1
note_on channel=0 note=83 velocity=0 time=239
note_on channel=0 note=84 velocity=80 time=1
note_on channel=0 note=84 velocity=0 time=239
note_on channel=0 note=77 velocity=80 time=1
note_on channel=0 note=77 velocity=0 time=239
note_on channel=0 note=80 velocity=80 time=1
note_on channel=0 note=80 velocity=0 time=479
note_on channel=0 note=77 velocity=80 time=1
note_on channel=0 note=77 velocity=0 time=359
note_on channel=0 note=84 velocity=80 time=1
note_on channel=0 note=84 velocity=0 time=119
note_on channel=0 note=81 velocity=80 time=1
note_on channel=0 note=81 velocity=0 time=479
note_on channel=0 note=77 velocity=80 time=1
note_on channel=0 note=77 velocity=0 time=239
note_on channel=0 note=84 velocity=80 time=1
note_on channel=0 note=84 velocity=0 time=239
note_on channel=0 note=81 velocity=80 time=1
note_on channel=0 note=81 velocity=0 time=959
MetaMessage('end_of_track', time=1)
